<?xml version="1.0" encoding="utf-8"?>
<!-- Generator: Adobe Illustrator 16.0.4, SVG Export Plug-In . SVG Version: 6.00 Build 0)  -->
<!DOCTYPE svg PUBLIC "-//W3C//DTD SVG 1.1//EN" "http://www.w3.org/Graphics/SVG/1.1/DTD/svg11.dtd">
<svg version="1.1" xmlns="http://www.w3.org/2000/svg" xmlns:xlink="http://www.w3.org/1999/xlink" x="0px" y="0px"
	 width="61.389px" height="60.356px" viewBox="0 0 61.389 60.356" enable-background="new 0 0 61.389 60.356" xml:space="preserve">
<g id="background">
	<path fill="#2F7FB8" d="M61.389,58.027c0,1.286-1.042,2.33-2.33,2.33H2.973c-1.286,0-2.329-1.043-2.329-2.33V2.686
		c0-1.287,1.043-2.329,2.329-2.329H59.06c1.287,0,2.33,1.042,2.33,2.329V58.027z"/>
</g>
<g id="dinosaur">
	<g id="Layer_5">
		<path opacity="0.4" d="M11.06,60.356V12.391c0,0,1.294-3.138,3.138-3.138s40.016,0,40.016,0s3.251,0.646,3.251,3.251
			s0,14.25,0,14.25s-0.517,3.21-3.21,3.21s-20.874,0-20.874,0v4.553h15.463c0,0,3.656,0.583,3.656,3.656
			c0,3.073-1.391,4.593-4.206,4.593c-2.814,0-15.106,0-15.106,0v17.59"/>
		<rect x="31.894" y="28.541" fill="#FFFFFF" width="13.975" height="4.553"/>
	</g>
	<path fill="#2ED871" d="M9.572,60.356V10.967c0,0,1.294-3.138,3.138-3.138c1.844,0,40.016,0,40.016,0s3.251,0.647,3.251,3.251
		c0,2.604,0,14.25,0,14.25s-0.518,3.211-3.211,3.211c-2.693,0-20.873,0-20.873,0v4.553h15.462c0,0,3.656,0.582,3.656,3.655
		c0,3.074-1.391,4.594-4.206,4.594c-2.814,0-15.106,0-15.106,0v19.013"/>
	<circle fill="#FFFFFF" cx="23.224" cy="17.437" r="4.658"/>
	<path d="M26.136,17.631c0,0.787-1.26,2.006-2.814,2.006c-1.554,0-2.814-1.219-2.814-2.006c0-0.786,1.163-1.941,2.717-1.941
		S26.136,16.845,26.136,17.631z"/>
	<g id="Layer_3">
	</g>
</g>
</svg>
